<svg xmlns="http://www.w3.org/2000/svg" viewBox="0 0 1200 630" width="1200" height="630">
  <rect width="1200" height="630" fill="#0a0a0f"/>

  <!-- chain motif, top-right, 8% opacity -->
  <g fill="none" stroke="#4f46e5" stroke-width="3" opacity="0.08">
    <path d="M880 120 l60 60 M940 120 l-60 60" transform="translate(0,0)"/>
    <rect x="870" y="90" width="90" height="90" rx="20"/>
    <rect x="990" y="140" width="90" height="90" rx="20"/>
    <rect x="1110" y="90" width="90" height="90" rx="20"/>
    <rect x="930" y="240" width="90" height="90" rx="20"/>
    <rect x="1050" y="290" width="90" height="90" rx="20"/>
  </g>

  <!-- hairline frame -->
  <rect x="24" y="24" width="1152" height="582" rx="18" fill="none" stroke="#1f1f28" stroke-width="1"/>

  <!-- logo lockup -->
  <g transform="translate(80,86)">
    <rect x="0" y="0" width="16" height="40" rx="4" fill="#4f46e5"/>
    <rect x="25" y="0" width="16" height="40" rx="4" fill="#4f46e5"/>
    <text x="62" y="33" font-family="General Sans, system-ui, sans-serif" font-size="40" font-weight="600" letter-spacing="-1.2" fill="#e7e7ea">even</text>
  </g>

  <!-- headline -->
  <text x="80" y="330" font-family="General Sans, system-ui, sans-serif" font-size="64" font-weight="600" letter-spacing="-1.9" fill="#e7e7ea">every agent action,</text>
  <text x="80" y="408" font-family="General Sans, system-ui, sans-serif" font-size="64" font-weight="600" letter-spacing="-1.9" fill="#e7e7ea">accounted for.</text>

  <!-- subtitle -->
  <text x="80" y="462" font-family="General Sans, system-ui, sans-serif" font-size="24" fill="#8b8b96">Signed, hash-chained receipts for AI agents. Cost, policy and proof — per action.</text>

  <!-- receipt chip -->
  <g transform="translate(80,512)">
    <rect width="560" height="56" rx="10" fill="#121218" stroke="#1f1f28"/>
    <text x="20" y="35" font-family="JetBrains Mono, monospace" font-size="17" fill="#8b8b96">9f2c41aa…  extract_invoice  $0.000021</text>
    <rect x="440" y="13" width="100" height="30" rx="15" fill="none" stroke="#4f46e5" stroke-width="1.2"/>
    <text x="470" y="34" font-family="JetBrains Mono, monospace" font-size="15" fill="#6366f1">ALLOW</text>
  </g>
</svg>
